# xmcd CD database file
#
# Track frame offsets:
#	187
#	25625
#	50817
#	77050
#	103537
#	127000
#	175662
#	198220
#	224507
#	252985
#	275670
#
# Disc length: 4104 seconds
#
# Revision: 0
# Processed by: cddbd v1.5.2PL0 Copyright (c) Steve Scherf et al.
# Submitted via: CDex 1.70beta1
#
DISCID=9c10060b
DTITLE=秋吉敏子 - 秋吉敏子1961
DYEAR=1994
DGENRE=Jazz
TTITLE0=黄色い長い道
TTITLE1=箱根のたそがれ
TTITLE2=木更津甚句
TTITLE3=ソルベージ・ソング
TTITLE4=ディープ・リバー
TTITLE5=ソー・ホワット
TTITLE6=夜は千の眼を持つ
TTITLE7=ドナ・リー
TTITLE8=ケベック
TTITLE9=オールド・パルス
TTITLE10=わたすのビートーベン
EXTD=YEAR: 1994
EXTT0=
EXTT1=
EXTT2=
EXTT3=
EXTT4=
EXTT5=
EXTT6=
EXTT7=
EXTT8=
EXTT9=
EXTT10=
PLAYORDER=
